<svg width="25" height="24" viewBox="0 0 25 24" fill="none" xmlns="http://www.w3.org/2000/svg">
<path fill-rule="evenodd" clip-rule="evenodd" d="M6.2682 2.33585C6.62176 2.73184 6.56444 3.32037 6.14016 3.65036C5.71264 3.98287 5.03207 4.63595 4.46581 5.4569C3.89479 6.28475 3.49999 7.19595 3.49999 8.06667C3.49999 8.58213 3.05228 9 2.5 9C1.94771 9 1.5 8.58213 1.5 8.06667C1.5 6.6974 2.10519 5.43082 2.78417 4.44646C3.46791 3.45519 4.28733 2.66161 4.8598 2.21635C5.28407 1.88636 5.91464 1.93986 6.2682 2.33585Z" fill="#5A489B"/>
<path fill-rule="evenodd" clip-rule="evenodd" d="M18.7318 2.33588C18.3782 2.73187 18.4356 3.32039 18.8598 3.65038C19.2874 3.9829 19.9679 4.63597 20.5342 5.45692C21.1052 6.28478 21.5 7.19597 21.5 8.06669C21.5 8.58216 21.9477 9.00002 22.5 9.00002C23.0523 9.00002 23.5 8.58216 23.5 8.06669C23.5 6.69742 22.8948 5.43085 22.2158 4.44649C21.5321 3.45522 20.7127 2.66163 20.1402 2.21637C19.7159 1.88638 19.0854 1.93988 18.7318 2.33588Z" fill="#5A489B"/>
<path d="M12.5 3C8.63401 3 5.5 6.13401 5.5 10V10.6393C5.5 12.1918 5.13855 13.7229 4.44427 15.1115L3.94722 16.1056C3.28232 17.4354 4.24931 19 5.73607 19H19.2639C20.7507 19 21.7177 17.4354 21.0528 16.1056L20.5557 15.1115C19.8615 13.7229 19.5 12.1918 19.5 10.6393V10C19.5 6.13401 16.366 3 12.5 3Z" fill="#5A489B"/>
<path d="M9.57629 20.959C9.31109 20.4745 9.77953 20 10.3318 20H14.6706C15.2228 20 15.6913 20.4745 15.4261 20.959C15.0865 21.5793 14.2513 22 13.4943 22H11.4943C10.7372 22 9.91588 21.5793 9.57629 20.959Z" fill="#5A489B"/>
</svg>