<svg id="SvgjsSvg1021" width="288" height="288" xmlns="http://www.w3.org/2000/svg" version="1.1" xmlns:xlink="http://www.w3.org/1999/xlink" xmlns:svgjs="http://svgjs.com/svgjs"><defs id="SvgjsDefs1022"></defs><g id="SvgjsG1023"><svg xmlns="http://www.w3.org/2000/svg" style="width:1.5rem;height:1.5rem" width="288" height="288"><path d="M19 4H5a3 3 0 0 0-3 3v10a3 3 0 0 0 3 3h14a3 3 0 0 0 3-3V7a3 3 0 0 0-3-3zM6 13a1 1 0 1 1 1-1 1 1 0 0 1-1 1zm6 2a3 3 0 1 1 3-3 3 3 0 0 1-3 3zm6-2a1 1 0 1 1 1-1 1 1 0 0 1-1 1z" fill="#2d6cdf" class="color000 svgShape"></path></svg></g></svg>