<svg id="SvgjsSvg1046" width="288" height="288" xmlns="http://www.w3.org/2000/svg" version="1.1" xmlns:xlink="http://www.w3.org/1999/xlink" xmlns:svgjs="http://svgjs.com/svgjs"><defs id="SvgjsDefs1047"></defs><g id="SvgjsG1048"><svg xmlns="http://www.w3.org/2000/svg" style="width:1.5rem;height:1.5rem" width="288" height="288"><path d="M4 2a3 3 0 0 0-3 3v1.5a.615.615 0 0 0 .495.562 2 2 0 0 1 0 3.876A.615.615 0 0 0 1 11.5V13a3 3 0 0 0 3 3h16a3 3 0 0 0 3-3v-1.5a.615.615 0 0 0-.495-.562 2 2 0 0 1 0-3.876A.615.615 0 0 0 23 6.5V5a3 3 0 0 0-3-3zM3 18a1 1 0 0 1 1-1h16a1 1 0 0 1 0 2H4a1 1 0 0 1-1-1zm3 2a1 1 0 0 0 0 2h12a1 1 0 0 0 0-2z" fill="#2d6cdf" class="color000 svgShape"></path></svg></g></svg>