<?xml version="1.0" encoding="UTF-8"?>
<svg version="1.1" viewBox="0 0 288 288" xmlns="http://www.w3.org/2000/svg">
<svg width="288" height="288" style="height:1.5rem;width:1.5rem" xmlns="http://www.w3.org/2000/svg">
<path class="color000 svgShape" d="M7.443 11.896V20a1 1 0 0 0 1 1h6.035a5 5 0 0 0 4.682-3.244l2.27-6.054A2 2 0 0 0 19.557 9h-4.833a1 1 0 0 1-.97-1.243l.297-1.188A2.873 2.873 0 0 0 11.263 3a.479.479 0 0 0-.443.296l-3.227 7.838a2 2 0 0 0-.151.762zm-2 .604a1.5 1.5 0 0 0-3 0v7a1.5 1.5 0 0 0 3 0z" fill="#2d6cdf"/>
</svg>
</svg>
