<?xml version="1.0" encoding="UTF-8"?>
<svg version="1.1" viewBox="0 0 288 288" xmlns="http://www.w3.org/2000/svg">
<svg width="288" height="288" fill="#2d6cdf" viewBox="0 0 25 24" xmlns="http://www.w3.org/2000/svg">
<path class="color5A489B svgShape" d="m6.2682 2.3358c0.35356 0.39599 0.29624 0.98452-0.12804 1.3145-0.42752 0.33251-1.1081 0.98559-1.6744 1.8065-0.57102 0.82785-0.96582 1.739-0.96582 2.6098 0 0.51546-0.44771 0.93333-0.99999 0.93333-0.55229 0-1-0.41787-1-0.93333 0-1.3693 0.60519-2.6358 1.2842-3.6202 0.68374-0.99127 1.5032-1.7848 2.0756-2.2301 0.42427-0.32999 1.0548-0.27649 1.4084 0.1195zm12.464 3e-5c-0.3536 0.39599-0.2962 0.98451 0.128 1.3145 0.4276 0.33252 1.1081 0.98559 1.6744 1.8065 0.571 0.82786 0.9658 1.739 0.9658 2.6098 0 0.51547 0.4477 0.93333 1 0.93333s1-0.41786 1-0.93333c0-1.3693-0.6052-2.6358-1.2842-3.6202-0.6837-0.99127-1.5031-1.7849-2.0756-2.2301-0.4243-0.32999-1.0548-0.27649-1.4084 0.11951z" clip-rule="evenodd" fill-rule="evenodd"/>
<path class="color5A489B svgShape" d="m12.5 3c-3.866 0-7 3.134-7 7v0.6393c0 1.5525-0.36145 3.0836-1.0557 4.4722l-0.49705 0.9941c-0.6649 1.3298 0.30209 2.8944 1.7888 2.8944h13.528c1.4868 0 2.4538-1.5646 1.7889-2.8944l-0.4971-0.9941c-0.6942-1.3886-1.0557-2.9197-1.0557-4.4722v-0.6393c0-3.866-3.134-7-7-7zm-2.9237 17.959c-0.2652-0.4845 0.20324-0.959 0.75551-0.959h4.3388c0.5522 0 1.0207 0.4745 0.7555 0.959-0.3396 0.6203-1.1748 1.041-1.9318 1.041h-2c-0.7571 0-1.5784-0.4207-1.918-1.041z"/>
</svg>
</svg>
