<svg id="SvgjsSvg1001" width="288" height="288" xmlns="http://www.w3.org/2000/svg" version="1.1" xmlns:xlink="http://www.w3.org/1999/xlink" xmlns:svgjs="http://svgjs.com/svgjs"><defs id="SvgjsDefs1002"></defs><g id="SvgjsG1008"><svg xmlns="http://www.w3.org/2000/svg" style="width:1.5rem;height:1.5rem" width="288" height="288"><path d="M22.505 10.062A.616.616 0 0 0 23 9.5V7a3 3 0 0 0-3-3H4a3 3 0 0 0-3 3v2.5a.616.616 0 0 0 .495.562 2 2 0 0 1 0 3.876A.615.615 0 0 0 1 14.5V17a3 3 0 0 0 3 3h16a3 3 0 0 0 3-3v-2.5a.615.615 0 0 0-.495-.562 2 2 0 0 1 0-3.876zM6 11V8a1 1 0 0 1 2 0v.839a5 5 0 0 1 7.157-.61 1 1 0 0 1-1.313 1.508A3 3 0 0 0 9.638 10H10a1 1 0 0 1 0 2H7a1 1 0 0 1-1-1zm12 4a1 1 0 0 1-2 0v-.175a5.002 5.002 0 0 1-7.434.925 1 1 0 0 1 1.324-1.5A3.001 3.001 0 0 0 14.703 13H14a1 1 0 0 1 0-2h3a1 1 0 0 1 1 1z" fill="#2d6cdf" class="color000 svgShape"></path></svg></g></svg>