<svg width="64" height="64" viewBox="0 0 64 64" fill="none" xmlns="http://www.w3.org/2000/svg">
<path opacity="0.15" d="M45.1974 51.5157C45.1974 51.8115 43.9782 52.0802 41.9642 52.289C41.358 52.3511 40.7981 52.5453 40.1828 52.5656C37.4577 52.6593 34.7202 52.6954 31.9905 52.6954C29.2812 52.6954 26.5775 52.6322 23.8749 52.4437C23.4166 52.4109 18.7848 52.3093 18.7848 51.5157C18.7848 51.1522 20.538 51.1319 23.429 50.9151C24.5579 50.8316 25.6687 50.5076 26.8089 50.4308C28.5339 50.318 30.2633 50.336 31.9905 50.336C33.414 50.336 34.8229 50.5945 36.243 50.6465C37.1078 50.6781 38.6724 50.4941 39.4344 50.5415C39.9424 50.572 45.1974 50.6837 45.1974 51.5157Z" fill="#3A8089"/>
<path d="M35.3635 24.327L35.0475 23.5142L34.483 23.3076C34.483 23.3076 33.9028 23.6293 33.9479 23.8596C33.9931 24.0899 34.141 25.0732 34.141 25.0732C34.1958 25.2769 34.2171 25.4881 34.2042 25.6986C34.185 26.0632 34.7878 26.2359 34.9255 26.1637C35.0633 26.0914 35.4087 26.0113 35.5069 25.842C35.6051 25.6726 35.8648 25.2312 35.7553 25.1364C35.6362 25.0388 35.5359 24.9202 35.4595 24.7865C35.4175 24.6356 35.3855 24.4821 35.3635 24.327Z" fill="#73CEC6"/>
<path d="M33.5709 24.6353C33.5709 24.6353 32.9229 24.4648 32.7999 24.5687C32.6768 24.6726 32.4183 24.6184 32.433 24.948C32.4476 25.2776 32.5459 25.4391 32.6508 25.5339C32.7558 25.6287 33.3282 25.736 33.3282 25.736L33.7594 25.3544L33.5709 24.6353Z" fill="#73CEC6"/>
<path d="M30.5207 19.4879C30.5207 19.4879 29.3613 19.3953 29.2259 19.5082C29.0904 19.6211 28.5022 20.5716 28.5022 20.5716C28.5022 20.5716 28.3228 21.2568 28.5147 21.6395C28.7066 22.0222 29.7135 22.6217 29.7779 22.4772C29.8422 22.3327 30.1888 22.2807 30.628 21.906C31.0671 21.5312 31.1664 21.4194 31.4385 21.2286C31.7106 21.0378 32.4048 20.9024 32.4624 20.6156C32.52 20.3289 32.6137 20.0749 32.319 19.7667C32.0244 19.4585 30.5207 19.4879 30.5207 19.4879Z" fill="#73CEC6"/>
<path d="M33.0917 45.97C42.1788 45.7622 49.3831 38.496 49.1829 29.7405C48.9827 20.9849 41.4538 14.0556 32.3666 14.2634C23.2794 14.4712 16.0752 21.7374 16.2754 30.493C16.4756 39.2485 24.0045 46.1778 33.0917 45.97Z" fill="#6D9FEB"/>
<mask id="mask0" mask-type="alpha" maskUnits="userSpaceOnUse" x="16" y="14" width="34" height="32">
<path d="M33.0917 45.97C42.1788 45.7622 49.3831 38.496 49.1829 29.7405C48.9827 20.9849 41.4538 14.0556 32.3666 14.2634C23.2794 14.4712 16.0752 21.7374 16.2754 30.493C16.4756 39.2485 24.0045 46.1778 33.0917 45.97Z" fill="#6D9FEB"/>
</mask>
<g mask="url(#mask0)">
<path d="M34.8329 26.8152L33.415 26.6967C33.3415 26.691 33.2677 26.7031 33.1998 26.7317C33.1318 26.7604 33.0717 26.8049 33.0244 26.8615L32.653 27.3029C32.5868 27.3802 32.5444 27.4751 32.5311 27.5761L32.4939 27.8436C32.4803 27.9407 32.4927 28.0397 32.53 28.1303L32.6429 28.4205C32.6797 28.5176 32.7467 28.6003 32.8341 28.6564C32.9215 28.7125 33.0247 28.739 33.1283 28.732L33.4286 28.7049C33.5201 28.6969 33.6118 28.717 33.6916 28.7625C33.8135 28.8314 33.9682 28.951 33.9535 29.1012C33.9431 29.6595 33.968 30.2179 34.028 30.7731C34.0811 31.1975 34.536 31.9629 34.7121 31.99C34.8882 32.0171 35.9031 32.0103 36.0724 31.8613C36.2418 31.7123 37.3142 31.4877 37.4113 31.2698V31.263C37.4414 31.1912 37.4891 31.1281 37.5501 31.0796C37.611 31.0311 37.6832 30.9987 37.76 30.9856C37.8368 30.9724 37.9156 30.9788 37.9892 31.0042C38.0629 31.0296 38.1289 31.0732 38.1812 31.1309C38.486 31.456 38.8585 31.8433 38.9409 31.8805C39.0843 31.946 39.9129 31.6615 40.0168 31.6547C40.1206 31.648 41.4155 31.5949 41.4967 31.841C41.578 32.0871 42.5127 31.8681 42.4845 31.228C42.4563 30.5879 42.5534 30.4062 42.5003 29.9806C42.4931 29.9282 42.4909 29.8753 42.4936 29.8225C42.4949 29.7541 42.5107 29.6868 42.5397 29.6248C42.5688 29.5629 42.6105 29.5077 42.6622 29.4629C42.7139 29.4181 42.7745 29.3847 42.8399 29.3648C42.9054 29.3449 42.9743 29.3389 43.0422 29.3473C43.4136 29.4049 43.9848 29.4895 44.1237 29.4839C44.2998 29.4771 44.6418 30.4829 44.7491 30.8126C44.7713 30.8807 44.807 30.9436 44.8541 30.9977C45.0798 31.254 45.7481 32.0329 45.782 32.1266C45.8159 32.2203 46.6163 32.209 47.052 32.2056C47.1371 32.2041 47.2203 32.1796 47.2926 32.1347C47.365 32.0898 47.4238 32.0261 47.4629 31.9505L48.0511 30.8634C48.1076 30.7601 48.129 30.6412 48.112 30.5247C48.0556 30.0969 47.9145 29.038 47.8806 28.8969C47.8467 28.7557 47.8309 27.6404 47.8242 27.0782C47.8216 26.9853 47.8439 26.8935 47.8888 26.8121C47.9336 26.7307 47.9994 26.6628 48.0793 26.6154L50.6983 25.1207C50.7164 25.1117 50.7333 25.1027 50.7525 25.0948L51.3011 24.869C51.3658 24.8394 51.4238 24.7972 51.4719 24.7449C51.52 24.6926 51.5571 24.6311 51.5811 24.5642C51.6051 24.4973 51.6155 24.4263 51.6116 24.3553C51.6077 24.2844 51.5897 24.2149 51.5585 24.151C50.8564 22.6519 48.6178 18.2752 45.5009 16.18C45.4282 16.1315 45.3433 16.1046 45.2559 16.1021L43.0693 16.0479C42.9748 16.0469 42.8821 16.0741 42.8031 16.126C42.7241 16.1779 42.6624 16.2521 42.6256 16.3391C42.4179 16.8054 42.0307 17.6588 41.9573 17.713L41.0531 18.3847C41.0051 18.4208 40.9501 18.4466 40.8917 18.4603C40.6907 18.51 40.2143 18.6104 40.2143 18.4705C40.2143 18.3474 39.8824 18.1318 39.6804 18.0189C39.5849 17.9614 39.4715 17.9413 39.362 17.9625C38.933 18.0449 37.7974 18.2673 37.6867 18.3305C37.5502 18.4072 36.2192 19.8895 36.156 20.1367C36.1187 20.2925 36.1063 20.9822 36.1018 21.4835C36.0986 21.5513 36.1091 21.6191 36.1328 21.6828C36.1564 21.7465 36.1927 21.8047 36.2394 21.8541C36.2861 21.9034 36.3422 21.9428 36.4045 21.9699C36.4668 21.997 36.534 22.0112 36.6019 22.0118C37.3153 21.9869 38.5424 21.9373 38.6147 21.8842C38.8539 21.7128 39.0803 21.5241 39.292 21.3198C39.4049 21.1979 39.8565 20.9518 40.1556 20.7982C40.2342 20.7573 40.3231 20.7404 40.4112 20.7496C40.4993 20.7589 40.5828 20.7938 40.6512 20.8502L41.5916 21.5941C41.6744 21.6623 41.7353 21.7533 41.7667 21.856C41.798 21.9586 41.7983 22.0681 41.7677 22.171L41.56 22.8878C41.5442 22.9414 41.5207 22.9924 41.49 23.0391L40.9154 23.8823C40.852 23.9786 40.7557 24.0485 40.6444 24.0788L40.0619 24.2346C40.032 24.2425 40.0014 24.247 39.9705 24.2481L37.6393 24.3779C37.5264 24.3866 37.4198 24.4338 37.3376 24.5117C37.2554 24.5896 37.2025 24.6935 37.1878 24.8058C37.1189 25.237 37.0151 25.8895 36.9801 26.1209C36.9293 26.4517 35.7383 26.7102 35.5599 26.7486L35.5136 26.7554L34.9142 26.8129C34.8872 26.816 34.86 26.8168 34.8329 26.8152Z" fill="#73CEC6"/>
<path d="M26.3617 18.0983L26.1055 17.8601C26.1055 17.8601 25.2509 18.3241 25.1527 18.4708C25.0545 18.6176 24.5657 18.674 24.3557 18.6831C24.1457 18.6921 23.7032 18.1762 23.5113 17.7924C23.3194 17.4086 23.3792 17.1929 22.9232 17.176C22.4671 17.1591 22.6409 17.1173 22.2244 17.2065C21.8078 17.2957 21.8857 17.4695 21.5256 17.2358C21.1655 17.0022 21.0549 16.8972 20.6168 16.4908C20.2954 16.1663 20.0096 15.8083 19.7645 15.4229C19.7645 15.4229 14.4588 19.9248 14.9103 27.5302L15.8665 30.1266C15.8665 30.1266 16.4569 30.0295 16.4016 29.5689C16.3463 29.1083 16.2943 28.7189 16.4264 28.5349C16.5585 28.3509 17.5169 27.8474 17.5169 27.8474L18.2067 27.6035C18.2067 27.6035 19.2927 27.6284 19.5342 27.5471C19.7758 27.4658 20.2974 27.3721 20.3899 27.0831C20.4825 26.7941 20.7613 25.9983 20.9013 25.9926C21.0413 25.987 23.0462 26.1857 23.0462 26.1857C23.0462 26.1857 25.5964 26.8246 25.5139 25.7601C25.4315 24.6955 25.5986 24.5093 25.3593 23.841C25.12 23.1727 26.005 21.8191 26.005 21.8191L27.1903 20.0942C27.1903 20.0942 27.3303 19.304 27.1836 19.1674C27.0368 19.0308 26.3143 17.8206 26.3617 18.0983Z" fill="#73CEC6"/>
<path d="M15.9399 31.9194C15.9399 31.9194 15.6984 31.995 15.6871 32.5245C15.6758 33.0539 15.932 38.8587 25.3323 44.7029C25.3323 44.7029 25.558 44.231 25.514 44.0673C25.47 43.9037 25.5671 42.8752 25.1302 42.4971C24.6933 42.1189 24.375 42.067 23.8681 41.6922C23.3612 41.3174 23.1163 41.3275 23.0971 40.9019C23.0779 40.4763 23.2901 39.7042 23.5227 39.4344C23.7552 39.1646 25.4598 38.0955 25.4598 38.0955C25.4598 38.0955 26.0469 37.1123 25.9983 36.8176C25.9498 36.523 25.9983 35.9247 25.9453 35.63C25.8922 35.3354 25.6845 33.6906 25.3977 33.5382C25.111 33.3858 24.2598 31.5706 23.8173 31.7218C23.3748 31.8731 21.9896 32.3619 21.5731 32.4466C21.1565 32.5312 19.8718 32.7852 19.4169 32.8033C18.962 32.8214 17.2393 32.6645 17.2393 32.6645L15.9399 31.9194Z" fill="#73CEC6"/>
<path d="M38.6826 34.1208C38.3541 33.8137 37.1834 33.4717 37.1834 33.4717L35.6414 34.2506C35.6414 34.2506 35.9879 34.9483 35.6493 35.2113C35.3106 35.4743 35.4991 35.7882 34.438 35.55C33.3768 35.3118 33.501 34.9483 32.5403 35.4168C31.5796 35.8852 31.2184 35.6154 30.7849 36.8843C30.3514 38.1532 30.1448 38.2661 30.0906 39.4085C30.0364 40.5509 31.7365 43.3596 31.8178 43.6091C31.8991 43.8586 34.3183 43.9263 34.3183 43.9263C34.3183 43.9263 36.2781 43.8778 36.4147 43.801C36.5512 43.7243 38.2705 43.7931 38.0041 44.125C37.7377 44.4569 37.127 45.658 37.127 45.658L38.8113 45.7292C38.8113 45.7292 45.3216 44.8452 48.0332 41.2384C48.0332 41.2384 46.4448 39.3825 46.2947 39.1387C46.1445 38.8949 44.8328 37.7761 44.3756 37.7603C43.9184 37.7445 42.1765 36.3221 41.9564 36.1178C41.7362 35.9135 41.4077 34.788 41.4077 34.788L38.6826 34.1208Z" fill="#73CEC6"/>
</g>
<g style="mix-blend-mode:multiply">
<path d="M25.8177 23.6203C25.8177 23.7524 25.6168 23.8743 25.2815 23.9691C25.181 23.9973 25.0884 24.082 24.9857 24.0956C24.5342 24.1407 24.077 24.161 23.622 24.1655C23.1684 24.1745 22.7149 24.1416 22.2673 24.0673C22.1906 24.0538 21.4184 24.0165 21.415 23.6643C21.415 23.5029 21.7063 23.4905 22.1861 23.39C22.3735 23.3505 22.5575 23.2049 22.7505 23.1642C23.0363 23.122 23.3253 23.105 23.6141 23.1134C23.8512 23.1134 24.0871 23.2263 24.3242 23.2444C24.4676 23.2568 24.7283 23.1732 24.8548 23.1924C24.9372 23.2105 25.8132 23.2511 25.8177 23.6203Z" fill="#CDDFF8"/>
</g>
<g style="mix-blend-mode:multiply">
<path d="M44.9568 20.6811C44.9568 20.8121 44.7615 20.934 44.4364 21.0288C44.3382 21.0582 44.2478 21.1417 44.1485 21.1553C43.7071 21.2004 43.2635 21.2208 42.8209 21.2253C42.38 21.2343 41.9392 21.2011 41.5047 21.1259C41.4302 21.1135 40.6783 21.0751 40.6749 20.7229C40.6749 20.5615 40.9583 20.5491 41.4256 20.4486C41.6074 20.4102 41.7869 20.2646 41.9709 20.2228C42.2487 20.1806 42.5299 20.1636 42.8108 20.172C43.0366 20.172 43.2714 20.2849 43.5017 20.303C43.6416 20.3154 43.8945 20.2318 44.0187 20.251C44.1011 20.2702 44.9534 20.312 44.9568 20.6811Z" fill="#CDDFF8"/>
</g>
<g style="mix-blend-mode:multiply">
<path d="M39.7969 28.2295C39.7969 28.3616 39.6072 28.4835 39.29 28.5783C39.1952 28.6065 39.1071 28.6912 39.01 28.7036C38.5799 28.7499 38.1475 28.7702 37.7163 28.7747C37.2867 28.7826 36.8572 28.7494 36.4339 28.6754C36.3616 28.6619 35.629 28.6235 35.6256 28.2713C35.6256 28.1098 35.9011 28.0974 36.3571 27.9969C36.5344 27.9586 36.7082 27.8129 36.8888 27.7768C37.1591 27.7344 37.4328 27.7178 37.7062 27.7271C37.9319 27.7271 38.1577 27.84 38.3835 27.8581C38.5201 27.8705 38.7673 27.787 38.887 27.8062C38.9637 27.8186 39.7935 27.8603 39.7969 28.2295Z" fill="#CDDFF8"/>
</g>
<g style="mix-blend-mode:multiply">
<path d="M33.9164 41.8783C33.9164 42.0092 33.7211 42.1311 33.3937 42.226C33.2955 42.2553 33.2052 42.3388 33.1047 42.3524C32.6622 42.3975 32.2163 42.419 31.7726 42.4224C31.3299 42.4312 30.8872 42.3984 30.4507 42.3242C30.3762 42.3106 29.6209 42.2722 29.6176 41.92C29.6176 41.7586 29.902 41.7473 30.3705 41.6468C30.5545 41.6073 30.734 41.4617 30.9192 41.4211C31.1982 41.3788 31.4804 41.3618 31.7624 41.3703C31.9939 41.3703 32.2242 41.4832 32.4556 41.5012C32.5967 41.5148 32.8507 41.4301 32.9749 41.4493C33.0573 41.4673 33.913 41.5091 33.9164 41.8783Z" fill="#CDDFF8"/>
</g>
<g style="mix-blend-mode:multiply">
<path d="M22.2074 34.5079C22.2074 34.6388 22.028 34.7608 21.7288 34.8556C21.6385 34.8838 21.5561 34.9685 21.4635 34.9809C21.0578 35.0251 20.6501 35.0485 20.242 35.0509C19.8355 35.059 19.4293 35.0253 19.0296 34.9504C18.9619 34.9369 18.2699 34.8985 18.2665 34.5463C18.2665 34.3848 18.5261 34.3736 18.9562 34.2731C19.1244 34.2336 19.2949 34.0891 19.4586 34.0473C19.714 34.0049 19.9731 33.9883 20.2319 33.9976C20.4441 33.9976 20.6552 34.1105 20.8674 34.1286C20.9973 34.1421 21.2298 34.0586 21.3438 34.0778C21.4195 34.0959 22.2041 34.1387 22.2074 34.5079Z" fill="#CDDFF8"/>
</g>
<g style="mix-blend-mode:multiply">
<path d="M49.0489 29.4734C48.7565 22.8796 44.854 17.4293 38.2692 15.2754C41.167 16.3354 45.1554 21.079 45.1554 26.0958C45.1554 34.8537 35.9741 41.5254 26.8934 41.9137C24.7297 42.0094 22.5677 41.6898 20.5242 40.9722C22.1743 42.6709 24.1667 43.9994 26.3693 44.8696C28.5718 45.7397 30.9342 46.1317 33.2998 46.0195C42.3896 45.63 49.4361 38.2234 49.0489 29.4734Z" fill="#CDCDD7"/>
</g>
<path d="M45.7877 15.0754C45.7885 14.6413 45.6904 14.2127 45.5007 13.8222C45.3109 13.4317 45.0346 13.0896 44.6928 12.8219C44.351 12.5543 43.9526 12.3681 43.528 12.2776C43.1034 12.1871 42.6638 12.1946 42.2425 12.2995C41.8212 12.4045 41.4294 12.6042 41.0969 12.8833C40.7644 13.1625 40.5 13.5138 40.3237 13.9105C40.1474 14.3073 40.0639 14.739 40.0796 15.1729C40.0953 15.6067 40.2097 16.0313 40.4142 16.4143L40.3871 16.4425L42.4846 20.6431C42.5163 20.705 42.5642 20.7572 42.6233 20.794C42.6823 20.8308 42.7503 20.8508 42.8198 20.852C42.8894 20.8532 42.958 20.8354 43.0182 20.8006C43.0785 20.7658 43.1281 20.7152 43.1619 20.6544L45.449 16.4403L45.4423 16.4312C45.6687 16.0152 45.7874 15.5491 45.7877 15.0754ZM42.9327 16.7462C42.6023 16.7462 42.2793 16.6482 42.0045 16.4646C41.7297 16.281 41.5156 16.0201 41.3891 15.7148C41.2627 15.4095 41.2296 15.0736 41.2941 14.7495C41.3585 14.4254 41.5177 14.1277 41.7513 13.894C41.985 13.6604 42.2827 13.5012 42.6068 13.4368C42.9309 13.3723 43.2668 13.4054 43.5721 13.5319C43.8774 13.6583 44.1383 13.8725 44.3219 14.1472C44.5055 14.422 44.6035 14.745 44.6035 15.0754C44.6035 15.5185 44.4275 15.9435 44.1141 16.2568C43.8008 16.5702 43.3758 16.7462 42.9327 16.7462Z" fill="#5A489B"/>
<path d="M23.0903 28.6259C23.0905 28.1921 22.9919 27.764 22.8019 27.3741C22.6119 26.9841 22.3356 26.6426 21.9939 26.3754C21.6521 26.1082 21.254 25.9224 20.8298 25.8321C20.4055 25.7418 19.9663 25.7493 19.5454 25.8542C19.1245 25.959 18.733 26.1583 18.4006 26.4371C18.0683 26.7159 17.8038 27.0667 17.6274 27.4629C17.4509 27.8591 17.367 28.2904 17.3821 28.7239C17.3972 29.1574 17.5109 29.5817 17.7145 29.9647L17.6863 29.993L19.7872 34.1958C19.8186 34.2581 19.8664 34.3105 19.9255 34.3476C19.9846 34.3846 20.0527 34.4048 20.1224 34.406C20.1921 34.4071 20.2609 34.3892 20.3212 34.3542C20.3814 34.3191 20.431 34.2683 20.4645 34.2071L22.7516 29.993L22.7448 29.9839C22.9715 29.5672 23.0902 29.1003 23.0903 28.6259ZM20.2353 30.2966C19.9049 30.2966 19.5819 30.1986 19.3071 30.0151C19.0324 29.8315 18.8182 29.5705 18.6918 29.2653C18.5653 28.96 18.5322 28.624 18.5967 28.2999C18.6611 27.9758 18.8203 27.6781 19.0539 27.4445C19.2876 27.2108 19.5853 27.0517 19.9094 26.9872C20.2335 26.9228 20.5694 26.9559 20.8747 27.0823C21.18 27.2088 21.4409 27.4229 21.6245 27.6977C21.8081 27.9724 21.9061 28.2954 21.9061 28.6259C21.9061 29.069 21.7301 29.494 21.4167 29.8073C21.1034 30.1206 20.6784 30.2966 20.2353 30.2966Z" fill="#5A489B"/>
<path d="M34.6105 36.3351C34.6126 35.9005 34.5154 35.4712 34.3263 35.0799C34.1373 34.6886 33.8614 34.3456 33.5198 34.0771C33.1781 33.8086 32.7796 33.6216 32.3547 33.5304C31.9298 33.4392 31.4897 33.4462 31.068 33.5508C30.6462 33.6555 30.2539 33.8551 29.9209 34.1344C29.588 34.4136 29.3231 34.7652 29.1467 35.1623C28.9702 35.5595 28.8867 35.9916 28.9025 36.4259C28.9184 36.8602 29.0332 37.2851 29.2381 37.6683L29.2099 37.6965L31.3097 41.8994C31.3414 41.9613 31.3893 42.0135 31.4484 42.0503C31.5074 42.0871 31.5754 42.1071 31.6449 42.1083C31.7145 42.1094 31.7831 42.0917 31.8433 42.0569C31.9036 42.022 31.9532 41.9715 31.987 41.9107L34.2741 37.6965L34.2674 37.6875C34.4923 37.2722 34.6103 36.8074 34.6105 36.3351ZM31.7567 38.0058C31.4263 38.0058 31.1032 37.9079 30.8285 37.7243C30.5537 37.5407 30.3396 37.2798 30.2131 36.9745C30.0867 36.6692 30.0536 36.3332 30.118 36.0091C30.1825 35.6851 30.3416 35.3874 30.5753 35.1537C30.809 34.92 31.1067 34.7609 31.4308 34.6964C31.7548 34.632 32.0908 34.6651 32.3961 34.7915C32.7014 34.918 32.9623 35.1321 33.1459 35.4069C33.3295 35.6816 33.4275 36.0047 33.4275 36.3351C33.426 36.7772 33.2493 37.2007 32.9361 37.5128C32.6229 37.825 32.1988 38.0002 31.7567 38.0002V38.0058Z" fill="#5A489B"/>
<path d="M26.6667 17.8261C26.6669 17.3923 26.5683 16.9642 26.3783 16.5743C26.1883 16.1843 25.912 15.8428 25.5703 15.5756C25.2286 15.3084 24.8305 15.1226 24.4062 15.0323C23.982 14.942 23.5427 14.9495 23.1218 15.0544C22.7009 15.1592 22.3094 15.3585 21.977 15.6373C21.6447 15.916 21.3803 16.2669 21.2038 16.6631C21.0273 17.0593 20.9434 17.4906 20.9585 17.9241C20.9736 18.3576 21.0873 18.782 21.2909 19.1649L21.2638 19.1932L23.3681 23.396C23.3998 23.458 23.4477 23.5101 23.5068 23.5469C23.5659 23.5837 23.6338 23.6038 23.7034 23.6049C23.7729 23.6061 23.8415 23.5883 23.9018 23.5535C23.962 23.5187 24.0117 23.4682 24.0454 23.4073L26.3314 19.1932V19.1841C26.5548 18.7666 26.6701 18.2997 26.6667 17.8261ZM23.8117 19.4968C23.4813 19.4968 23.1583 19.3989 22.8835 19.2153C22.6088 19.0317 22.3946 18.7707 22.2682 18.4655C22.1417 18.1602 22.1086 17.8242 22.1731 17.5001C22.2376 17.176 22.3967 16.8783 22.6303 16.6447C22.864 16.411 23.1617 16.2519 23.4858 16.1874C23.8099 16.123 24.1458 16.1561 24.4511 16.2825C24.7564 16.409 25.0173 16.6231 25.2009 16.8979C25.3845 17.1726 25.4825 17.4956 25.4825 17.8261C25.4825 18.2692 25.3065 18.6942 24.9932 19.0075C24.6798 19.3208 24.2549 19.4968 23.8117 19.4968Z" fill="#5A489B"/>
<path d="M23.8115 14.9724C23.3247 14.9943 22.851 15.1371 22.4332 15.3879C22.3295 15.4489 22.2303 15.5172 22.1363 15.5922C22.0415 15.6655 21.9517 15.7451 21.8676 15.8304C21.7 15.9991 21.5551 16.1888 21.4364 16.3948C21.197 16.8067 21.0676 17.2732 21.0604 17.7495C21.0465 18.224 21.1574 18.6939 21.3822 19.1121L21.4172 19.1798L21.3641 19.2329L21.3359 19.2611L21.3551 19.1482C21.7649 19.9745 22.1746 20.8009 22.5698 21.6317L23.1624 22.8814L23.3069 23.1964L23.3792 23.3533C23.3993 23.4037 23.4297 23.4495 23.4683 23.4876C23.5092 23.5254 23.5579 23.5536 23.611 23.5702C23.6641 23.5868 23.7202 23.5913 23.7753 23.5834C23.8303 23.5755 23.8829 23.5554 23.9292 23.5246C23.9756 23.4937 24.0144 23.453 24.0429 23.4052C24.0169 23.4583 23.9791 23.5048 23.9323 23.541C23.8855 23.5772 23.8311 23.6022 23.7731 23.6141C23.7138 23.6264 23.6524 23.6249 23.5937 23.6099C23.535 23.5948 23.4806 23.5665 23.4345 23.5271C23.3868 23.4873 23.3483 23.4376 23.3216 23.3815L23.2392 23.2302L23.0744 22.9254L22.4309 21.7006C22.0008 20.8844 21.5865 20.0603 21.1711 19.2374L21.1383 19.1708L21.1903 19.1188L21.2185 19.0906L21.2004 19.2114C20.9595 18.7609 20.8427 18.2544 20.8618 17.7439C20.8769 17.2361 21.0273 16.7415 21.2975 16.3113C21.4306 16.0982 21.5907 15.9031 21.7739 15.7311C21.8655 15.6456 21.9628 15.5664 22.0651 15.494C22.1656 15.4199 22.2712 15.3532 22.3812 15.2942C22.4353 15.2634 22.4915 15.2366 22.5494 15.214C22.607 15.1903 22.6623 15.1598 22.721 15.1418C22.8375 15.0991 22.9567 15.064 23.0777 15.0368C23.3185 14.9832 23.5652 14.9616 23.8115 14.9724Z" fill="#FFE7E0"/>
<path d="M23.8116 16.1557C24.0374 16.1356 24.2649 16.1638 24.479 16.2384C24.6931 16.3129 24.8889 16.4321 25.0534 16.588C25.2226 16.747 25.3571 16.9391 25.4485 17.1525C25.5404 17.3665 25.5884 17.5969 25.5896 17.8298C25.588 18.0626 25.5404 18.2928 25.4497 18.5071C25.3577 18.7205 25.2228 18.9126 25.0534 19.0716C24.889 19.2278 24.6933 19.3471 24.4792 19.4217C24.265 19.4962 24.0375 19.5243 23.8116 19.5039C24.242 19.4658 24.6436 19.2715 24.9405 18.9576C25.2253 18.6524 25.3836 18.2506 25.3836 17.8332C25.3836 17.4158 25.2253 17.014 24.9405 16.7088C24.645 16.392 24.2431 16.1951 23.8116 16.1557Z" fill="#FFE7E0"/>
<path d="M40.5599 22.503C40.5604 22.0691 40.462 21.6407 40.2722 21.2505C40.0823 20.8602 39.806 20.5184 39.4642 20.251C39.1225 19.9836 38.7242 19.7976 38.2998 19.7072C37.8754 19.6168 37.4359 19.6243 37.0148 19.7292C36.5937 19.8341 36.2021 20.0336 35.8697 20.3126C35.5373 20.5915 35.2728 20.9426 35.0964 21.3391C34.9201 21.7356 34.8364 22.167 34.8518 22.6007C34.8672 23.0344 34.9812 23.4589 35.1853 23.8419L35.157 23.8701L37.2534 28.0729C37.2848 28.1352 37.3326 28.1877 37.3917 28.2247C37.4508 28.2618 37.5189 28.282 37.5886 28.2831C37.6584 28.2843 37.7271 28.2664 37.7874 28.2313C37.8477 28.1963 37.8972 28.1454 37.9307 28.0842L40.2178 23.8701L40.2111 23.8622C40.439 23.4454 40.559 22.9781 40.5599 22.503ZM37.7049 24.1738C37.3745 24.1738 37.0515 24.0758 36.7767 23.8922C36.502 23.7086 36.2878 23.4477 36.1614 23.1424C36.0349 22.8371 36.0018 22.5012 36.0663 22.1771C36.1307 21.853 36.2899 21.5553 36.5235 21.3216C36.7572 21.0879 37.0549 20.9288 37.379 20.8644C37.7031 20.7999 38.039 20.833 38.3443 20.9594C38.6496 21.0859 38.9105 21.3 39.0941 21.5748C39.2777 21.8495 39.3757 22.1726 39.3757 22.503C39.3757 22.9461 39.1997 23.3711 38.8863 23.6844C38.573 23.9977 38.148 24.1738 37.7049 24.1738Z" fill="#5A489B"/>
<path d="M37.775 19.6499C37.2878 19.6716 36.8136 19.8144 36.3955 20.0653C36.2922 20.1264 36.1933 20.1946 36.0997 20.2696C36.0045 20.3429 35.9144 20.4225 35.8299 20.5078C35.6627 20.6765 35.5181 20.8663 35.3998 21.0723C35.1597 21.4839 35.0299 21.9505 35.0227 22.4269C35.0091 22.9018 35.12 23.3719 35.3445 23.7906L35.3806 23.8572L35.3264 23.9114L35.2982 23.9385L35.3174 23.8256C35.7272 24.652 36.1369 25.4783 36.5321 26.3092L37.1247 27.5588L37.2692 27.8738L37.3426 28.0307C37.3616 28.0815 37.3917 28.1274 37.4307 28.1651C37.4715 28.2029 37.5202 28.2311 37.5733 28.2476C37.6264 28.2642 37.6825 28.2687 37.7376 28.2608C37.7927 28.2529 37.8453 28.2328 37.8916 28.202C37.9379 28.1712 37.9767 28.1304 38.0053 28.0826C37.9795 28.1357 37.9418 28.1822 37.8952 28.2184C37.8487 28.2546 37.7944 28.2796 37.7366 28.2915C37.6772 28.3039 37.6159 28.3025 37.5571 28.2874C37.4984 28.2723 37.444 28.244 37.3979 28.2046C37.3509 28.1645 37.3125 28.1154 37.285 28.0601L37.2037 27.9077L37.0389 27.6029L36.3943 26.378C35.9654 25.5618 35.5499 24.7378 35.1356 23.9148L35.1018 23.8493L35.1548 23.7963L35.1819 23.768L35.1638 23.8888C34.924 23.4379 34.8072 22.9317 34.8252 22.4213C34.8539 21.6592 35.1821 20.9392 35.7384 20.4175C35.8297 20.332 35.9266 20.2528 36.0286 20.1804C36.1292 20.1066 36.2348 20.0399 36.3447 19.9806C36.3992 19.9507 36.4553 19.924 36.5129 19.9005C36.5704 19.8768 36.6258 19.8463 36.6856 19.8282C36.8016 19.7854 36.9204 19.7507 37.0412 19.7244C37.2814 19.667 37.5281 19.642 37.775 19.6499Z" fill="#FFE7E0"/>
<path d="M37.7749 20.8323C38.0007 20.8125 38.2281 20.8408 38.4422 20.9153C38.6562 20.9898 38.852 21.1089 39.0167 21.2647C39.1855 21.4239 39.3199 21.616 39.4118 21.8291C39.5043 22.0429 39.552 22.2735 39.552 22.5064C39.552 22.7394 39.5043 22.9699 39.4118 23.1838C39.3198 23.3968 39.1853 23.5888 39.0167 23.7482C38.8522 23.9042 38.6564 24.0234 38.4423 24.098C38.2282 24.1725 38.0007 24.2007 37.7749 24.1806C38.2054 24.1426 38.607 23.9483 38.9038 23.6342C39.1883 23.3289 39.3465 22.9271 39.3465 22.5098C39.3465 22.0925 39.1883 21.6908 38.9038 21.3855C38.6079 21.0691 38.2062 20.8723 37.7749 20.8323Z" fill="#FFE7E0"/>
<path d="M42.865 12.2204C42.3779 12.2433 41.9039 12.3864 41.4855 12.637C41.3821 12.6983 41.2829 12.7666 41.1887 12.8413C40.9044 13.0594 40.6668 13.3324 40.4899 13.644C40.25 14.0557 40.1202 14.5222 40.1128 14.9986C40.0989 15.4732 40.2098 15.943 40.4346 16.3612L40.4696 16.4289L40.4165 16.482L40.3883 16.5102L40.4075 16.3917C40.8173 17.218 41.227 18.0444 41.6221 18.8752L42.2204 20.1328L42.3649 20.4478L42.4372 20.6047C42.4573 20.6551 42.4877 20.7009 42.5264 20.739C42.5672 20.7768 42.6159 20.805 42.669 20.8216C42.7221 20.8381 42.7782 20.8426 42.8333 20.8347C42.8884 20.8269 42.941 20.8068 42.9873 20.7759C43.0336 20.7451 43.0724 20.7044 43.101 20.6566C43.075 20.7095 43.0373 20.7559 42.9907 20.792C42.9442 20.8282 42.89 20.8533 42.8323 20.8655C42.7729 20.8774 42.7117 20.8758 42.653 20.8608C42.5944 20.8457 42.5399 20.8176 42.4936 20.7785C42.4466 20.7381 42.4082 20.6885 42.3807 20.6329L42.2983 20.4816L42.1335 20.1768L41.4833 18.9497C41.0543 18.1336 40.6389 17.3095 40.2235 16.4854L40.1907 16.4199L40.2427 16.368L40.2709 16.3398L40.2528 16.4662C40.013 16.0153 39.8962 15.5091 39.9142 14.9986C39.9265 14.6196 40.0135 14.2466 40.1703 13.9012C40.327 13.5559 40.5503 13.2448 40.8274 12.9858C40.9184 12.9001 41.0154 12.8209 41.1175 12.7488C41.218 12.6747 41.3236 12.6079 41.4336 12.549C41.488 12.5185 41.5442 12.4913 41.6018 12.4677C41.6594 12.4451 41.7147 12.4146 41.7734 12.3966C41.8899 12.3539 42.0091 12.3188 42.1301 12.2916C42.3709 12.2358 42.618 12.2119 42.865 12.2204Z" fill="#FFE7E0"/>
<path d="M42.865 13.4047C43.0908 13.3846 43.3183 13.4128 43.5324 13.4873C43.7465 13.5619 43.9423 13.6811 44.1068 13.8371C44.2763 13.9957 44.4109 14.188 44.5019 14.4015C44.5938 14.6156 44.6418 14.8459 44.643 15.0789C44.6416 15.3117 44.594 15.5419 44.503 15.7562C44.4111 15.9695 44.2762 16.1617 44.1068 16.3207C43.9425 16.4769 43.7467 16.5963 43.5325 16.6708C43.3184 16.7454 43.0908 16.7734 42.865 16.753C43.2952 16.7144 43.6966 16.5201 43.9939 16.2066C44.2784 15.9013 44.4366 15.4996 44.4366 15.0823C44.4366 14.665 44.2784 14.2632 43.9939 13.9579C43.6983 13.6411 43.2965 13.4442 42.865 13.4047Z" fill="#FFE7E0"/>
<path d="M31.7218 33.4053C31.2347 33.4283 30.7608 33.5714 30.3423 33.8218C30.239 33.8829 30.1402 33.9512 30.0465 34.0262C29.9518 34.0991 29.8621 34.1783 29.7779 34.2632C29.6105 34.4321 29.4655 34.6218 29.3466 34.8277C29.1078 35.2398 28.978 35.706 28.9696 36.1823C28.9564 36.6568 29.0673 37.1264 29.2913 37.5449L29.3274 37.6126L29.2733 37.6657L29.2462 37.6939L29.2654 37.581C29.6751 38.4074 30.0849 39.2337 30.4789 40.0646L31.0727 41.3142L31.2172 41.6292L31.2894 41.7861C31.3096 41.8363 31.3395 41.8819 31.3775 41.9204C31.4183 41.9582 31.467 41.9864 31.5201 42.003C31.5732 42.0196 31.6294 42.0241 31.6844 42.0162C31.7395 42.0083 31.7921 41.9882 31.8384 41.9574C31.8847 41.9265 31.9235 41.8858 31.9521 41.838C31.9261 41.891 31.8884 41.9373 31.8419 41.9734C31.7953 42.0096 31.7411 42.0347 31.6834 42.0469C31.6241 42.059 31.5627 42.0575 31.5041 42.0424C31.4454 42.0274 31.3909 41.9992 31.3448 41.9599C31.2973 41.9199 31.2589 41.8702 31.2319 41.8143L31.1495 41.6619L30.9846 41.3583L30.3412 40.1334C29.9111 39.3172 29.4956 38.4931 29.0813 37.6691L29.0486 37.6036L29.1005 37.5517L29.1288 37.5234L29.1107 37.6442C28.8698 37.1937 28.753 36.6872 28.772 36.1767C28.7893 35.6723 28.94 35.1814 29.2089 34.7543C29.4077 34.4337 29.6682 34.1559 29.9754 33.937C30.0762 33.8634 30.1818 33.7967 30.2915 33.7372C30.3463 33.7067 30.4028 33.6795 30.4608 33.6559C30.5184 33.6322 30.5737 33.6028 30.6324 33.5848C30.981 33.4574 31.3508 33.398 31.7218 33.4098V33.4053Z" fill="#FFE7E0"/>
<path d="M31.7217 34.5893C31.9475 34.5692 32.175 34.5974 32.389 34.672C32.6031 34.7465 32.7989 34.8657 32.9635 35.0216C33.1321 35.181 33.2665 35.3731 33.3586 35.5861C33.4511 35.7999 33.4988 36.0304 33.4988 36.2634C33.4988 36.4964 33.4511 36.7269 33.3586 36.9407C33.2671 37.1541 33.1326 37.3462 32.9635 37.5052C32.7991 37.6614 32.6033 37.7807 32.3892 37.8553C32.1751 37.9298 31.9475 37.9579 31.7217 37.9376C32.1521 37.8994 32.5536 37.7051 32.8506 37.3912C33.1355 37.0861 33.2941 36.6843 33.2941 36.2668C33.2941 35.8493 33.1355 35.4475 32.8506 35.1424C32.5553 34.8253 32.1533 34.6283 31.7217 34.5893Z" fill="#FFE7E0"/>
<path d="M20.2354 25.771C19.7471 25.7934 19.272 25.9366 18.8525 26.1876C18.7493 26.2486 18.6504 26.3169 18.5568 26.3919C18.4621 26.4641 18.3724 26.5426 18.2881 26.6267C17.7848 27.1406 17.4959 27.8267 17.4798 28.5458C17.4665 29.0206 17.5774 29.4907 17.8015 29.9095L17.8377 29.9772L17.7835 30.0303L17.7564 30.0585L17.7756 29.94C18.1854 30.7663 18.594 31.5927 18.9891 32.4235L19.5829 33.6743L19.7274 33.9882L19.7997 34.1462C19.8194 34.1966 19.8494 34.2423 19.8877 34.2805C19.9286 34.3181 19.9774 34.3462 20.0304 34.3626C20.0835 34.3791 20.1396 34.3835 20.1946 34.3756C20.2496 34.3677 20.3021 34.3477 20.3484 34.317C20.3947 34.2863 20.4336 34.2457 20.4623 34.1981C20.4363 34.2511 20.3986 34.2974 20.3521 34.3336C20.3055 34.3697 20.2514 34.3949 20.1937 34.407C20.1343 34.4191 20.073 34.4176 20.0143 34.4025C19.9556 34.3875 19.9012 34.3593 19.855 34.3201C19.8076 34.28 19.7691 34.2304 19.7421 34.1744L19.6597 34.022L19.4949 33.7184L18.8525 32.5026C18.4224 31.6864 18.007 30.8623 17.5927 30.0382L17.56 29.9727L17.6119 29.9197L17.6401 29.8926L17.6221 30.0134C17.3812 29.5628 17.2643 29.0563 17.2834 28.5458C17.3002 28.0383 17.4522 27.5446 17.7236 27.1155C17.9224 26.7949 18.183 26.5171 18.4902 26.2982C18.591 26.2246 18.6966 26.1579 18.8063 26.0984C18.861 26.0679 18.9176 26.0407 18.9756 26.0171C19.0332 25.9934 19.0885 25.964 19.1472 25.946C19.4958 25.8186 19.8656 25.7592 20.2365 25.771H20.2354Z" fill="#FFE7E0"/>
<path d="M20.2352 26.9546C20.461 26.9344 20.6886 26.9625 20.9027 27.0371C21.1168 27.1116 21.3126 27.2309 21.477 27.3869C21.6457 27.5463 21.7801 27.7384 21.8721 27.9514C21.9646 28.1652 22.0124 28.3957 22.0124 28.6287C22.0124 28.8617 21.9646 29.0922 21.8721 29.3061C21.7807 29.5194 21.6461 29.7115 21.477 29.8705C21.3125 30.0264 21.1167 30.1456 20.9026 30.2202C20.6885 30.2947 20.461 30.3229 20.2352 30.3029C20.6656 30.2647 21.0672 30.0704 21.3641 29.7565C21.6491 29.4514 21.8076 29.0496 21.8076 28.6321C21.8076 28.2147 21.6491 27.8128 21.3641 27.5077C21.0688 27.1906 20.6668 26.9936 20.2352 26.9546Z" fill="#FFE7E0"/>
</svg>
