<svg width="25" height="24" viewBox="0 0 25 24" fill="none" xmlns="http://www.w3.org/2000/svg">
<path fill-rule="evenodd" clip-rule="evenodd" d="M6.84102 4.09532C7.40703 3.91701 7.82695 3.97079 8.05558 4.09701C8.22492 4.19049 8.47731 4.42537 8.47731 5.15021C8.47731 5.6973 8.92358 6.1408 9.47407 6.1408C10.0246 6.1408 10.4708 5.6973 10.4708 5.15021C10.4708 3.8939 9.97566 2.89065 9.02364 2.36508C8.13655 1.87535 7.07649 1.92866 6.16864 2.22935L6.12477 2.24389L6.08243 2.2624C4.71078 2.86207 3.51916 3.73114 2.69741 5.19473C1.97436 6.48251 1.58404 8.14897 1.51218 10.3328L1.5 10.34C1.5 10.4523 1.50114 10.5662 1.50349 10.6815C1.50116 10.817 1.5 10.9545 1.5 11.0939C1.5 11.176 1.51006 11.2559 1.52903 11.3322C1.77081 15.4983 3.58623 21 9.32828 21C15.0812 21 18.8853 17.5853 20.404 15.1129C20.6045 14.8447 20.795 14.5667 20.9751 14.2828C21.7931 12.9938 22.4444 11.511 22.8796 10.0854C23.3115 8.67012 23.55 7.24722 23.4912 6.08333C23.4619 5.50383 23.3561 4.92423 23.1124 4.43032C22.8595 3.91799 22.4338 3.45883 21.7895 3.27036C20.7729 2.97295 19.816 3.31036 19.0463 3.81587C18.2776 4.32068 17.5708 5.06926 16.9532 5.8595C16.0343 7.03525 15.2211 8.4239 14.6153 9.56831L8.19881 7.53663C7.38484 7.27891 6.49963 7.38021 5.76493 7.81516L3.59681 9.0987C3.74484 7.80267 4.04358 6.86303 4.43825 6.16011C4.98748 5.18189 5.77523 4.56845 6.84102 4.09532ZM16.5373 10.1965C16.4368 13.2259 17.0283 14.511 17.8611 14.999C18.3573 14.5347 18.8401 13.9332 19.2889 13.226C20.0005 12.1046 20.582 10.7874 20.9719 9.51025C21.3649 8.22275 21.5435 7.04016 21.5002 6.1827C21.4784 5.75152 21.4033 5.46649 21.3225 5.30265C21.2846 5.22587 21.2534 5.19195 21.2407 5.18024C21.2323 5.17245 21.2298 5.17177 21.2274 5.17113C20.9922 5.10234 20.6526 5.13562 20.1454 5.46874C19.6371 5.80256 19.086 6.36033 18.5276 7.0748C17.7763 8.03616 17.0867 9.18279 16.5373 10.1965Z" fill="#5A489B"/>
</svg>
