<svg width="65" height="64" viewBox="0 0 65 64" fill="none" xmlns="http://www.w3.org/2000/svg">
<path d="M51.7447 14.202C51.692 13.8567 51.549 13.5314 51.3302 13.2591C51.1115 12.9868 50.8247 12.777 50.4988 12.6511C39.3799 8.41854 32.4018 13.5791 26.6844 18.9871C21.9911 23.4308 12.8903 22.1401 9.39164 21.4319C9.23317 21.3997 9.06926 21.4063 8.91389 21.4511C8.75853 21.4959 8.61631 21.5777 8.49937 21.6894C8.38244 21.8011 8.29425 21.9394 8.24234 22.0926C8.19043 22.2457 8.17633 22.4092 8.20124 22.5689L11.5698 43.9215C11.6087 44.1693 11.7212 44.3997 11.8928 44.5827C12.0644 44.7657 12.2871 44.8928 12.5319 44.9476C15.4652 45.5876 25.4172 47.3476 30.4114 42.6265C35.973 37.3721 43.5335 32.346 54.1703 35.9663C54.3742 36.0366 54.5928 36.053 54.805 36.0139C55.0171 35.9747 55.2154 35.8813 55.3808 35.7428C55.5461 35.6043 55.6728 35.4254 55.7486 35.2234C55.8243 35.0215 55.8465 34.8034 55.813 34.5903L51.7447 14.202Z" fill="#0770E3"/>
<path d="M55.8131 34.5897L52.6665 18.69C52.5982 18.6666 52.5577 18.225 52.5577 18.225C40.8691 13.2266 33.3534 18.9866 27.459 24.5503C21.8718 29.8324 10.0873 27.0143 8.85419 26.7007L11.5699 43.9209C11.6088 44.1688 11.7214 44.3992 11.893 44.5822C12.0646 44.7652 12.2872 44.8923 12.5321 44.9471C15.4654 45.5871 25.4174 47.3471 30.4115 42.626C35.9731 37.3716 43.5337 32.3455 54.1705 35.9657C54.3744 36.0361 54.593 36.0525 54.8051 36.0133C55.0172 35.9742 55.2156 35.8808 55.3809 35.7423C55.5463 35.6038 55.673 35.4249 55.7487 35.2229C55.8245 35.0209 55.8466 34.8028 55.8131 34.5897Z" fill="#6D9FEB"/>
<path d="M38.6312 14.2402C38.5803 14.241 38.5309 14.2236 38.4918 14.1911C38.4527 14.1586 38.4265 14.1133 38.4178 14.0632L38.2045 12.8002C38.1999 12.7722 38.2008 12.7436 38.2073 12.7159C38.2137 12.6883 38.2255 12.6622 38.2421 12.6391C38.2586 12.616 38.2795 12.5964 38.3037 12.5814C38.3278 12.5664 38.3546 12.5563 38.3826 12.5517C38.4106 12.5471 38.4393 12.548 38.4669 12.5545C38.4946 12.5609 38.5207 12.5728 38.5438 12.5893C38.5669 12.6058 38.5865 12.6268 38.6015 12.6509C38.6164 12.675 38.6265 12.7018 38.6312 12.7298L38.8445 13.9928C38.8538 14.0485 38.8406 14.1056 38.8078 14.1516C38.775 14.1976 38.7253 14.2287 38.6696 14.2381L38.6312 14.2402Z" fill="#042759"/>
<path d="M41.3299 30.3806C41.2787 30.3812 41.2291 30.3635 41.1899 30.3306C41.1508 30.2977 41.1247 30.2518 41.1165 30.2014L40.6685 27.5198C40.6592 27.4632 40.6727 27.4052 40.7061 27.3586C40.7395 27.312 40.7901 27.2806 40.8467 27.2712C40.9033 27.2619 40.9612 27.2754 41.0078 27.3088C41.0544 27.3422 41.0859 27.3928 41.0952 27.4494L41.5453 30.1395C41.5499 30.1672 41.5489 30.1956 41.5425 30.223C41.5361 30.2504 41.5243 30.2762 41.5078 30.299C41.4914 30.3218 41.4706 30.3411 41.4466 30.3558C41.4227 30.3706 41.396 30.3804 41.3683 30.3848L41.3299 30.3806ZM40.4296 25.0003C40.3785 25.001 40.3288 24.9832 40.2896 24.9503C40.2505 24.9174 40.2245 24.8716 40.2163 24.8211L39.7661 22.131C39.7615 22.103 39.7625 22.0743 39.7689 22.0466C39.7754 22.019 39.7872 21.9929 39.8037 21.9698C39.8203 21.9467 39.8412 21.9271 39.8653 21.9121C39.8894 21.8972 39.9163 21.8871 39.9443 21.8824C39.9723 21.8778 40.0009 21.8787 40.0286 21.8852C40.0562 21.8917 40.0824 21.9035 40.1054 21.92C40.1285 21.9366 40.1481 21.9575 40.1631 21.9816C40.1781 22.0057 40.1882 22.0326 40.1928 22.0606L40.6408 24.7464C40.6501 24.8022 40.6369 24.8593 40.6041 24.9053C40.5713 24.9513 40.5216 24.9824 40.4659 24.9918L40.4296 25.0003ZM39.54 19.6264C39.4892 19.6272 39.4398 19.6097 39.4007 19.5773C39.3615 19.5448 39.3353 19.4995 39.3267 19.4494L38.8765 16.7592C38.8672 16.7027 38.8807 16.6447 38.9141 16.5981C38.9475 16.5515 38.9981 16.52 39.0547 16.5107C39.1113 16.5014 39.1692 16.5149 39.2158 16.5483C39.2624 16.5817 39.2939 16.6323 39.3032 16.6888L39.7512 19.379C39.7605 19.4347 39.7473 19.4918 39.7145 19.5378C39.6817 19.5838 39.632 19.6149 39.5763 19.6243L39.54 19.6264Z" fill="#042759"/>
<path d="M41.989 34.3321C41.9382 34.3328 41.8888 34.3154 41.8497 34.2829C41.8105 34.2504 41.7843 34.2051 41.7757 34.155L41.5623 32.892C41.553 32.8355 41.5665 32.7775 41.5999 32.7309C41.6333 32.6843 41.6839 32.6528 41.7405 32.6435C41.7971 32.6342 41.855 32.6477 41.9016 32.6811C41.9482 32.7145 41.9797 32.7651 41.989 32.8216L42.2023 34.0846C42.2116 34.1403 42.1984 34.1974 42.1656 34.2434C42.1328 34.2894 42.0831 34.3205 42.0274 34.3299L41.989 34.3321Z" fill="#042759"/>
<path d="M32.9459 53.7597C44.6903 53.7597 54.211 53.4235 54.211 53.0087C54.211 52.594 44.6903 52.2578 32.9459 52.2578C21.2015 52.2578 11.6808 52.594 11.6808 53.0087C11.6808 53.4235 21.2015 53.7597 32.9459 53.7597Z" fill="#CDDFF8"/>
<path d="M36.0157 20.3454C35.8574 20.3457 35.7023 20.39 35.5677 20.4734C33.5399 21.7449 31.6689 23.2507 29.9933 24.9598C29.2873 25.6502 28.4665 26.2125 27.5677 26.6217C27.3905 26.7007 27.2455 26.8379 27.1566 27.0105C27.0678 27.1831 27.0405 27.3808 27.0792 27.571L27.6936 30.6921C27.7313 30.8897 27.8376 31.0676 27.9937 31.1945C28.1498 31.3213 28.3458 31.389 28.5469 31.3854C28.6913 31.3847 28.8334 31.3488 28.9608 31.2809C29.6757 30.902 30.3318 30.4212 30.9085 29.8537C32.6899 28.0851 34.7187 26.3401 37.0568 25.0089C37.2121 24.9197 37.3354 24.784 37.4093 24.6209C37.4832 24.4578 37.5039 24.2756 37.4685 24.1001L36.8691 21.0345C36.8318 20.8365 36.7257 20.658 36.5695 20.5307C36.4134 20.4034 36.2172 20.3355 36.0157 20.339" fill="#8AB2EF"/>
<path d="M11.0835 26.3271H11.2136C11.2368 26.3295 11.2601 26.3258 11.2815 26.3165C11.3028 26.3071 11.3213 26.2924 11.3352 26.2737L12.2589 25.0428L13.1976 25.1196C13.2284 25.1311 13.2614 25.1354 13.2941 25.1321C13.3268 25.1287 13.3583 25.1179 13.3861 25.1003C13.4139 25.0828 13.4373 25.0591 13.4545 25.0311C13.4716 25.003 13.482 24.9714 13.4849 24.9386C13.4878 24.9059 13.4831 24.8729 13.4712 24.8423C13.4592 24.8117 13.4404 24.7842 13.4161 24.7621C13.3918 24.74 13.3627 24.7237 13.3311 24.7147C13.2995 24.7057 13.2662 24.7041 13.2339 24.71L12.2952 24.6247L11.5933 23.2636C11.5832 23.2429 11.5678 23.2251 11.5487 23.212C11.5297 23.1989 11.5076 23.191 11.4845 23.1889H11.3523C11.3301 23.1871 11.3077 23.1907 11.2872 23.1993C11.2666 23.208 11.2484 23.2215 11.2342 23.2386C11.2199 23.2558 11.2101 23.2761 11.2054 23.2979C11.2007 23.3198 11.2013 23.3424 11.2072 23.3639L11.5549 24.582L10.7165 24.5073L10.5715 24.1447C10.5629 24.1221 10.5485 24.1021 10.5298 24.0867C10.5111 24.0714 10.4887 24.0612 10.4648 24.0572L10.1512 24.0124L10.3837 24.6908L10.0381 25.3308H10.3539C10.3777 25.3317 10.4013 25.3262 10.4223 25.315C10.4433 25.3037 10.4609 25.2871 10.4733 25.2668L10.6867 24.9319L11.5251 25.0044L10.9725 26.1436C10.9628 26.1638 10.9581 26.1861 10.9589 26.2086C10.9596 26.2311 10.9658 26.253 10.977 26.2725C10.9881 26.292 11.0038 26.3085 11.0227 26.3207C11.0416 26.3328 11.0632 26.3401 11.0856 26.342" fill="white"/>
<path d="M51.9006 23.8788L51.3481 23.9278C50.2537 21.9076 47.8366 20.41 45.9507 20.5806C45.1806 20.651 44.6174 20.9881 44.2953 21.5001C44.18 21.6836 44.3422 22.0142 44.6302 22.1913C44.867 22.3385 45.1123 22.3342 45.2083 22.1913C45.3461 21.9879 45.53 21.8198 45.745 21.7008C45.96 21.5818 46.2001 21.5152 46.4457 21.5065C47.8579 21.3785 49.6755 22.5049 50.499 24.0174L49.9465 24.0665C49.7139 24.0878 49.7054 24.3545 49.9315 24.5444L51.8238 26.138C52.0563 26.3342 52.3358 26.3086 52.3443 26.091L52.4105 24.3182C52.3952 24.1948 52.3345 24.0814 52.2403 24.0002C52.146 23.919 52.025 23.8757 51.9006 23.8788Z" fill="white"/>
<path d="M50.6546 26.2977C50.5175 26.5014 50.334 26.6696 50.1193 26.7887C49.9046 26.9077 49.6647 26.9741 49.4194 26.9825C48.0071 27.1127 46.1895 25.9863 45.366 24.4716L45.9143 24.4225C46.1468 24.4012 46.1554 24.1367 45.9292 23.9447L44.037 22.3511C43.8066 22.1569 43.5271 22.1825 43.5186 22.398L43.4503 24.1708C43.4689 24.291 43.5303 24.4004 43.6232 24.4788C43.7161 24.5573 43.8343 24.5994 43.9559 24.5975L44.5127 24.5463C45.6071 26.5665 48.0242 28.0663 49.91 27.8935C50.6802 27.8231 51.2412 27.486 51.5634 26.974C51.6807 26.7905 51.5186 26.462 51.2306 26.2828C50.9959 26.1399 50.7527 26.1463 50.6546 26.2977Z" fill="white"/>
<path d="M15.557 25.3273C15.5004 25.3273 15.4462 25.3049 15.4062 25.2649C15.3662 25.2249 15.3437 25.1706 15.3437 25.114C15.3437 25.0574 15.3662 25.0032 15.4062 24.9632C15.4462 24.9232 15.5004 24.9007 15.557 24.9007C15.557 24.9007 15.877 24.9007 16.4104 24.8857C16.4669 24.884 16.5219 24.9049 16.5631 24.9437C16.6043 24.9825 16.6284 25.0361 16.6301 25.0927C16.6318 25.1493 16.6109 25.2042 16.5721 25.2454C16.5333 25.2866 16.4797 25.3107 16.4232 25.3124C15.8877 25.3273 15.5698 25.3273 15.5698 25.3273H15.557ZM18.9832 25.1759C18.9266 25.1779 18.8715 25.1573 18.8301 25.1187C18.7887 25.0801 18.7643 25.0266 18.7624 24.97C18.7604 24.9134 18.781 24.8584 18.8196 24.817C18.8582 24.7756 18.9116 24.7512 18.9682 24.7492L19.6082 24.6959C19.6648 24.6908 19.7211 24.7084 19.7647 24.7448C19.8083 24.7812 19.8357 24.8334 19.8408 24.89C19.8458 24.9466 19.8283 25.0029 19.7918 25.0465C19.7554 25.0901 19.7032 25.1175 19.6466 25.1225L19.0066 25.1759H18.9896H18.9832ZM20.4829 25.0372C20.4263 25.0403 20.3708 25.0208 20.3286 24.983C20.2864 24.9452 20.2609 24.8922 20.2578 24.8356C20.2547 24.779 20.2742 24.7235 20.312 24.6813C20.3498 24.6391 20.4028 24.6137 20.4594 24.6105C21.012 24.5487 21.5496 24.4783 22.053 24.3972C22.3512 24.3529 22.6447 24.2815 22.9298 24.1839C22.9566 24.1736 22.9851 24.1687 23.0138 24.1697C23.0425 24.1707 23.0706 24.1774 23.0966 24.1895C23.1226 24.2016 23.1459 24.2189 23.1651 24.2402C23.1843 24.2615 23.199 24.2864 23.2083 24.3135C23.2176 24.3407 23.2214 24.3694 23.2194 24.398C23.2173 24.4266 23.2096 24.4545 23.1965 24.48C23.1835 24.5056 23.1654 24.5282 23.1434 24.5466C23.1214 24.565 23.0959 24.5788 23.0685 24.5871C22.7601 24.6967 22.4423 24.7781 22.1192 24.8303C21.6072 24.9092 21.0653 24.9796 20.5064 25.0436H20.4829V25.0372ZM23.5933 24.3631C23.5447 24.3629 23.4976 24.346 23.4598 24.3154C23.422 24.2847 23.3959 24.2421 23.3857 24.1945C23.3755 24.147 23.3818 24.0974 23.4037 24.0539C23.4255 24.0105 23.4616 23.9758 23.5058 23.9556C23.7448 23.8468 23.9944 23.7209 24.2504 23.578C24.2996 23.5497 24.358 23.5421 24.4128 23.5569C24.4676 23.5718 24.5143 23.6077 24.5426 23.6569C24.5709 23.7062 24.5785 23.7646 24.5637 23.8194C24.5489 23.8742 24.5129 23.9209 24.4637 23.9492C24.197 24.0985 23.9368 24.2308 23.685 24.3439C23.6575 24.3564 23.6277 24.3629 23.5976 24.3631H23.5933ZM26.4733 22.5327C26.4287 22.533 26.3851 22.5193 26.3487 22.4936C26.3123 22.4678 26.2848 22.4313 26.2702 22.3892C26.2556 22.347 26.2546 22.3014 26.2673 22.2586C26.28 22.2159 26.3058 22.1782 26.341 22.1508C26.5074 22.0185 26.6717 21.8863 26.8338 21.7519C26.8774 21.7157 26.9335 21.6982 26.99 21.7034C27.0464 21.7086 27.0984 21.736 27.1346 21.7796C27.1708 21.8232 27.1882 21.8793 27.183 21.9358C27.1778 21.9922 27.1504 22.0442 27.1069 22.0804C26.9426 22.2169 26.7741 22.3535 26.6034 22.4857C26.5665 22.5154 26.5207 22.5319 26.4733 22.5327ZM27.5933 21.5684C27.5626 21.5687 27.5323 21.5623 27.5043 21.5498C27.4763 21.5373 27.4514 21.5189 27.4311 21.4959C27.3941 21.4531 27.3756 21.3975 27.3796 21.3411C27.3836 21.2847 27.4098 21.2322 27.4525 21.1951C28.0925 20.634 28.6728 20.0857 29.1378 19.6441L29.3298 19.4607C29.3711 19.4216 29.4262 19.4006 29.4831 19.4022C29.5399 19.4038 29.5937 19.4279 29.6327 19.4692C29.6718 19.5105 29.6928 19.5656 29.6912 19.6224C29.6896 19.6793 29.6655 19.7331 29.6242 19.7721L29.4301 19.9535C28.9629 20.3972 28.3805 20.9476 27.7234 21.5151C27.6851 21.5489 27.6359 21.5678 27.5847 21.5684H27.5933ZM29.9314 19.3924C29.8884 19.3923 29.8464 19.3792 29.811 19.3548C29.7756 19.3304 29.7483 19.2959 29.7329 19.2557C29.7174 19.2156 29.7145 19.1717 29.7244 19.1299C29.7343 19.088 29.7567 19.0501 29.7885 19.0212C29.9549 18.8697 30.0786 18.7631 30.1767 18.6905L30.4754 18.4772C30.4983 18.4608 30.5243 18.4492 30.5518 18.4429C30.5792 18.4366 30.6076 18.4358 30.6354 18.4406C30.6632 18.4453 30.6897 18.4555 30.7135 18.4706C30.7373 18.4857 30.7579 18.5053 30.7741 18.5284C30.7905 18.5513 30.8021 18.5773 30.8084 18.6047C30.8147 18.6322 30.8155 18.6606 30.8107 18.6884C30.806 18.7162 30.7957 18.7427 30.7807 18.7665C30.7656 18.7903 30.746 18.8109 30.7229 18.8271C30.6269 18.8932 30.5287 18.9636 30.4327 19.0404C30.3367 19.1172 30.2301 19.2047 30.0743 19.3455C30.0352 19.381 29.9843 19.4008 29.9314 19.4009" fill="white"/>
<path d="M24.5342 29.421C24.4697 29.4196 24.4058 29.4327 24.3472 29.4595C24.2886 29.4863 24.2368 29.5261 24.1957 29.5758C24.1547 29.6254 24.1254 29.6838 24.1101 29.7464C24.0948 29.809 24.0939 29.8743 24.1075 29.9373L24.4083 31.341L24.6366 31.7271C24.7179 31.7738 24.8123 31.7924 24.9052 31.7801C24.9981 31.7678 25.0844 31.7252 25.1507 31.6589L26.228 30.5815C26.2803 30.5296 26.3182 30.4651 26.3381 30.3941C26.358 30.3232 26.3592 30.2484 26.3416 30.1768C26.324 30.1053 26.2882 30.0396 26.2376 29.986C26.1871 29.9324 26.1235 29.8929 26.0531 29.8711L24.6515 29.4445C24.61 29.4319 24.5669 29.4254 24.5235 29.4253" fill="#8AB2EF"/>
<path d="M16.7687 45.6274C17.0268 45.653 17.2892 45.6786 17.558 45.6999C18.3751 45.7661 19.2391 45.8066 20.118 45.8066C20.4935 45.8066 20.8754 45.8066 21.2572 45.7831C20.8754 45.7981 20.4935 45.8066 20.118 45.8066C18.9964 45.8039 17.8757 45.7441 16.7602 45.6274H16.7687ZM12.5319 44.9469H12.5575H12.5319ZM30.4284 42.6109L30.4114 42.6258L30.4284 42.6109ZM30.4498 42.5895L30.4327 42.6066L30.4498 42.5895ZM30.469 42.5725L30.454 42.5874L30.469 42.5725ZM33.0716 40.2898C32.1586 41.0258 31.2946 41.7959 30.4711 42.5703C31.2946 41.7959 32.1586 41.0279 33.0716 40.2898ZM8.20123 22.564L8.85403 26.7005L8.20123 22.564ZM9.1975 21.4141C9.04685 21.4145 8.89824 21.4489 8.76269 21.5146C8.62715 21.5803 8.50816 21.6758 8.41457 21.7938C8.50816 21.6758 8.62715 21.5803 8.76269 21.5146C8.89824 21.4489 9.04685 21.4145 9.1975 21.4141C9.26907 21.4136 9.34051 21.42 9.41083 21.4333C11.7169 21.9044 14.0631 22.1509 16.4167 22.1693C17.8474 22.1783 19.2758 22.054 20.6834 21.7981C19.2758 22.054 17.8474 22.1783 16.4167 22.1693C14.0631 22.1509 11.7169 21.9044 9.41083 21.4333C9.34051 21.42 9.26907 21.4136 9.1975 21.4141Z" fill="#C9C7DB"/>
<path d="M15.557 25.3269C15.5004 25.3269 15.4462 25.3044 15.4062 25.2644C15.3662 25.2244 15.3437 25.1702 15.3437 25.1136C15.3437 25.057 15.3662 25.0027 15.4062 24.9627C15.4462 24.9227 15.5004 24.9003 15.557 24.9003C15.557 24.9003 15.877 24.9003 16.4104 24.8853C16.4669 24.8853 16.5212 24.9078 16.5612 24.9478C16.6012 24.9878 16.6237 25.0421 16.6237 25.0987C16.6237 25.1552 16.6012 25.2095 16.5612 25.2495C16.5212 25.2895 16.4669 25.312 16.4104 25.312C15.8749 25.3269 15.557 25.3269 15.557 25.3269ZM18.9704 25.1755C18.9423 25.1764 18.9144 25.1719 18.8882 25.1621C18.8619 25.1523 18.8378 25.1374 18.8173 25.1182C18.7968 25.0991 18.7803 25.0762 18.7687 25.0507C18.757 25.0251 18.7505 24.9976 18.7496 24.9696C18.7486 24.9416 18.7531 24.9136 18.7629 24.8874C18.7728 24.8611 18.7876 24.8371 18.8068 24.8165C18.8259 24.796 18.8488 24.7795 18.8744 24.7679C18.8999 24.7563 18.9274 24.7498 18.9554 24.7488L19.5954 24.6955H19.6104C19.6384 24.6939 19.6664 24.6979 19.6929 24.7072C19.7194 24.7165 19.7437 24.7309 19.7646 24.7496C19.7855 24.7684 19.8026 24.791 19.8147 24.8163C19.8268 24.8416 19.8339 24.869 19.8354 24.8971C19.837 24.9251 19.833 24.9531 19.8237 24.9796C19.8144 25.0061 19.8 25.0304 19.7812 25.0513C19.7625 25.0722 19.7399 25.0892 19.7146 25.1014C19.6893 25.1135 19.6618 25.1206 19.6338 25.1221L18.9938 25.1755H18.9768H18.9704ZM11.5656 24.5717L11.2178 23.3536C11.2118 23.3331 11.2107 23.3115 11.2145 23.2906C11.2184 23.2696 11.2271 23.2498 11.2399 23.2328C11.2528 23.2158 11.2695 23.2021 11.2886 23.1927C11.3077 23.1833 11.3288 23.1785 11.3501 23.1786H11.3629H11.4952C11.5182 23.1807 11.5403 23.1886 11.5594 23.2017C11.5784 23.2148 11.5938 23.2326 11.604 23.2533L12.3016 24.6251L13.2402 24.7104C13.2851 24.724 13.3242 24.752 13.3516 24.7901C13.3789 24.8282 13.393 24.8743 13.3915 24.9212C13.39 24.968 13.3732 25.0131 13.3435 25.0494C13.3139 25.0858 13.2731 25.1113 13.2274 25.1221H13.204L12.2653 25.0453L11.3416 26.2763C11.329 26.2933 11.3126 26.3072 11.2937 26.3168C11.2748 26.3265 11.254 26.3316 11.2328 26.3317H11.22H11.0898C11.0674 26.3298 11.0459 26.3225 11.0269 26.3104C11.008 26.2983 10.9923 26.2817 10.9812 26.2622C10.9701 26.2427 10.9638 26.2208 10.9631 26.1983C10.9623 26.1759 10.967 26.1536 10.9768 26.1333L11.5293 24.9941L10.6909 24.9216L10.4776 25.2565C10.4656 25.2763 10.4487 25.2927 10.4285 25.3039C10.4083 25.3151 10.3855 25.3209 10.3624 25.3205H10.0466L10.3922 24.6805L10.1597 24.0021L10.4733 24.0469C10.4972 24.0509 10.5196 24.0611 10.5383 24.0764C10.557 24.0918 10.5714 24.1118 10.58 24.1344L10.725 24.4971L11.5634 24.5717H11.5656ZM9.18903 21.408C9.03838 21.4084 8.88976 21.4427 8.75422 21.5085C8.61867 21.5742 8.49969 21.6697 8.40609 21.7877C8.24257 21.9913 8.16591 22.2512 8.19276 22.5109V22.5578L8.84556 26.6944C11.5701 27.3562 14.3619 27.702 17.1656 27.7248C18.9196 27.743 20.6695 27.5496 22.3773 27.1488C22.0616 26.368 21.7885 25.6128 21.5496 24.896C21.2018 24.9451 20.8413 24.9899 20.4829 25.0304H20.4594C20.4028 25.0335 20.3473 25.014 20.3051 24.9762C20.2629 24.9384 20.2375 24.8854 20.2344 24.8288C20.2312 24.7722 20.2507 24.7167 20.2885 24.6745C20.3264 24.6323 20.3794 24.6068 20.436 24.6037C20.773 24.5675 21.1037 24.5269 21.4258 24.4821C21.1058 23.4816 20.8584 22.5621 20.6706 21.7834C19.263 22.0394 17.8346 22.1637 16.404 22.1546C14.0504 22.1362 11.7041 21.8897 9.39809 21.4186C9.32777 21.4053 9.25633 21.3989 9.18476 21.3994" fill="#0557C3"/>
<path d="M18.0297 37.419C20.0826 37.4387 22.1308 37.2196 24.1331 36.7662C24.5218 36.6716 24.9321 36.7351 25.2741 36.9426C25.616 37.1502 25.8617 37.485 25.9571 37.8734L26.6099 40.602C26.7046 40.9864 26.6427 41.3927 26.4379 41.7316C26.2331 42.0704 25.9021 42.314 25.5177 42.4089C23.4623 42.8854 21.3575 43.1153 19.2478 43.0937C17.5668 43.0907 15.8878 42.9773 14.2217 42.7545C13.9202 42.7144 13.6381 42.5833 13.4131 42.3786C13.1882 42.1738 13.0312 41.9053 12.963 41.6089L12.3614 39.0404C12.3083 38.82 12.306 38.5904 12.3548 38.3691C12.4036 38.1477 12.5021 37.9403 12.643 37.7627C12.7838 37.5851 12.9632 37.4419 13.1676 37.3439C13.372 37.2459 13.596 37.1957 13.8227 37.1972C13.8761 37.1972 13.9315 37.1972 13.9891 37.1972C15.331 37.3443 16.6798 37.4191 18.0297 37.4212V37.419ZM18.2067 34.347C16.3082 34.3368 14.4143 34.1591 12.547 33.8158C12.2896 33.7692 12.0526 33.6449 11.868 33.4595C11.6834 33.2742 11.56 33.0367 11.5145 32.779L11.1027 30.5412C11.0681 30.3555 11.0746 30.1645 11.1218 29.9816C11.1691 29.7987 11.2559 29.6284 11.3761 29.4827C11.4963 29.3371 11.6471 29.2196 11.8177 29.1385C11.9883 29.0575 12.1746 29.0149 12.3635 29.0137C12.4349 29.0131 12.5062 29.0181 12.5769 29.0286C14.1659 29.2816 15.7721 29.4121 17.3811 29.419C18.6958 29.4276 20.0085 29.314 21.3022 29.0798C21.3844 29.0638 21.468 29.0559 21.5518 29.0564C21.8546 29.0513 22.1493 29.1538 22.3837 29.3456C22.618 29.5374 22.7768 29.806 22.8318 30.1038L23.2777 32.4761C23.3108 32.642 23.3107 32.8129 23.2773 32.9787C23.244 33.1446 23.1781 33.3023 23.0835 33.4425C22.9889 33.5828 22.8674 33.7029 22.726 33.7959C22.5847 33.8889 22.4263 33.953 22.2601 33.9844C20.9237 34.2347 19.5663 34.3561 18.2067 34.347ZM8.85419 26.7012L11.0537 40.6446L11.5699 43.9214C11.6088 44.1693 11.7214 44.3997 11.893 44.5827C12.0646 44.7657 12.2872 44.8928 12.5321 44.9476H12.5577L12.771 44.9924L12.9033 45.0201C13.2937 45.1012 13.7566 45.1929 14.307 45.2846C14.6505 45.3422 15.0217 45.3998 15.4163 45.4553C15.7342 45.5001 16.0563 45.5428 16.4126 45.5812L16.7753 45.6217C17.8908 45.7384 19.0115 45.7982 20.1331 45.8009C20.5086 45.8009 20.8905 45.8009 21.2723 45.7774C24.5854 45.6388 28.0563 44.8537 30.4179 42.6201L30.435 42.6052L30.4521 42.5881L30.467 42.5732C31.2905 41.7988 32.1545 41.0286 33.0675 40.2926C29.2766 38.1102 26.5673 34.9593 24.643 31.7294C24.5891 31.7014 24.542 31.6618 24.5052 31.6135C24.4683 31.5652 24.4425 31.5094 24.4297 31.45L24.4062 31.3433C23.6334 29.9963 22.9542 28.5978 22.3731 27.1577C20.6695 27.5575 18.924 27.7508 17.1742 27.7337C14.3705 27.7109 11.5787 27.3652 8.85419 26.7033" fill="#567CC9"/>
<path d="M12.3635 29.0137C12.1745 29.014 11.9879 29.0559 11.8168 29.1362C11.6458 29.2166 11.4945 29.3336 11.3736 29.4789C11.2527 29.6242 11.1652 29.7942 11.1173 29.9771C11.0694 30.1599 11.0622 30.351 11.0963 30.5369L11.508 32.7747C11.5535 33.0324 11.6769 33.2698 11.8615 33.4552C12.0461 33.6406 12.2831 33.7649 12.5405 33.8115C14.4098 34.1566 16.3059 34.3358 18.2067 34.347C19.5663 34.3561 20.9236 34.2347 22.26 33.9843C22.4252 33.9522 22.5825 33.8877 22.7228 33.7947C22.8631 33.7016 22.9837 33.5818 23.0776 33.4421C23.1715 33.3024 23.237 33.1455 23.2702 32.9805C23.3034 32.8155 23.3037 32.6455 23.2712 32.4803L22.8253 30.1081C22.7703 29.8103 22.6116 29.5416 22.3772 29.3498C22.1429 29.1581 21.8481 29.0556 21.5453 29.0606C21.4615 29.0601 21.3779 29.068 21.2957 29.0841C20.002 29.3183 18.6894 29.4318 17.3747 29.4233C15.7656 29.4163 14.1595 29.2858 12.5704 29.0329C12.4998 29.0223 12.4284 29.0173 12.3571 29.0179" fill="#6D8ACD"/>
<path d="M24.4935 36.7227C24.372 36.7222 24.251 36.7365 24.133 36.7654C22.1307 37.2187 20.0824 37.4378 18.0295 37.4182C16.6796 37.4161 15.3308 37.3413 13.989 37.1942C13.9314 37.1942 13.8759 37.1942 13.8226 37.1942C13.5957 37.1926 13.3714 37.2428 13.1668 37.3409C12.9622 37.439 12.7826 37.5825 12.6418 37.7604C12.5009 37.9383 12.4024 38.1459 12.3538 38.3675C12.3052 38.5892 12.3077 38.819 12.3612 39.0395L12.9628 41.5995C13.031 41.8959 13.1881 42.1644 13.413 42.3692C13.6379 42.5739 13.92 42.7051 14.2215 42.7451C15.8875 42.9708 17.5665 43.087 19.2476 43.0928C21.3574 43.1144 23.4622 42.8845 25.5175 42.408C25.9019 42.3132 26.2329 42.0696 26.4377 41.7307C26.6426 41.3919 26.7044 40.9856 26.6098 40.6011L25.957 37.8726C25.8792 37.5435 25.6921 37.2506 25.4263 37.0418C25.1604 36.8329 24.8316 36.7204 24.4935 36.7227Z" fill="#6D8ACD"/>
<path d="M11.3438 23.1787C11.3224 23.1785 11.3014 23.1833 11.2822 23.1927C11.2631 23.2021 11.2465 23.2159 11.2336 23.2329C11.2207 23.2499 11.212 23.2697 11.2082 23.2906C11.2044 23.3116 11.2055 23.3332 11.2115 23.3537L11.5592 24.5718L10.7208 24.4971L10.5758 24.1345C10.5672 24.1118 10.5528 24.0919 10.5341 24.0765C10.5154 24.0612 10.493 24.051 10.4691 24.047L10.1555 24.0022L10.388 24.6806L10.0424 25.3206H10.3582C10.3813 25.3209 10.4041 25.3152 10.4243 25.304C10.4445 25.2927 10.4614 25.2764 10.4734 25.2566L10.6867 24.9217L11.5251 24.9942L10.9726 26.1334C10.9628 26.1536 10.9581 26.1759 10.9589 26.1984C10.9596 26.2208 10.9659 26.2428 10.977 26.2623C10.9881 26.2818 11.0038 26.2983 11.0227 26.3104C11.0417 26.3225 11.0632 26.3299 11.0856 26.3318H11.2158H11.2286C11.2497 26.3316 11.2706 26.3265 11.2895 26.3169C11.3084 26.3073 11.3248 26.2934 11.3374 26.2763L12.2611 25.0454L13.1998 25.1222H13.2232C13.2689 25.1114 13.3097 25.0858 13.3393 25.0495C13.369 25.0132 13.3858 24.9681 13.3873 24.9212C13.3888 24.8743 13.3747 24.8283 13.3474 24.7902C13.32 24.7521 13.2809 24.7241 13.236 24.7105L12.2974 24.6251L11.5934 23.2641C11.5832 23.2433 11.5678 23.2255 11.5487 23.2124C11.5297 23.1994 11.5076 23.1914 11.4846 23.1894H11.3523H11.3395" fill="#C9C7DB"/>
<path d="M16.4146 24.8856C15.8855 24.9006 15.5612 24.9006 15.5612 24.9006C15.5047 24.9006 15.4504 24.923 15.4104 24.963C15.3704 25.003 15.3479 25.0573 15.3479 25.1139C15.3479 25.1705 15.3704 25.2247 15.4104 25.2647C15.4504 25.3047 15.5047 25.3272 15.5612 25.3272C15.5612 25.3272 15.8876 25.3272 16.4146 25.3123C16.4711 25.3123 16.5254 25.2898 16.5654 25.2498C16.6054 25.2098 16.6279 25.1555 16.6279 25.099C16.6279 25.0424 16.6054 24.9881 16.5654 24.9481C16.5254 24.9081 16.4711 24.8856 16.4146 24.8856ZM19.6146 24.6958H19.5996L18.9596 24.7491C18.9031 24.7511 18.8496 24.7754 18.811 24.8169C18.7724 24.8583 18.7518 24.9133 18.7538 24.9699C18.7557 25.0265 18.7801 25.0799 18.8215 25.1186C18.8629 25.1572 18.918 25.1777 18.9746 25.1758H18.9916L19.6316 25.1224C19.6882 25.1193 19.7412 25.0939 19.779 25.0516C19.8169 25.0094 19.8363 24.9539 19.8332 24.8974C19.8301 24.8408 19.8047 24.7877 19.7625 24.7499C19.7202 24.7121 19.6647 24.6926 19.6082 24.6958H19.6146ZM21.4279 24.4824C21.1058 24.5272 20.7751 24.5678 20.438 24.604C20.3815 24.6071 20.3284 24.6326 20.2906 24.6748C20.2528 24.717 20.2333 24.7725 20.2364 24.8291C20.2395 24.8857 20.265 24.9387 20.3072 24.9765C20.3494 25.0143 20.4049 25.0338 20.4615 25.0307H20.485C20.8519 24.9902 21.2124 24.9454 21.5516 24.8963C21.5068 24.7576 21.462 24.6211 21.4194 24.4846" fill="#C9C7DB"/>
</svg>
