<svg id="SvgjsSvg1001" width="288" height="288" xmlns="http://www.w3.org/2000/svg" version="1.1" xmlns:xlink="http://www.w3.org/1999/xlink" xmlns:svgjs="http://svgjs.com/svgjs"><defs id="SvgjsDefs1002"></defs><g id="SvgjsG1008"><svg xmlns="http://www.w3.org/2000/svg" style="width:1.5rem;height:1.5rem" width="288" height="288" class="BpkIcon_bpk-icon--rtl-support__OTgwO"><path d="M12 2a10 10 0 1 0 10 10A10 10 0 0 0 12 2zM9.809 7.254A1.283 1.283 0 0 1 11.12 6h1.763a1.283 1.283 0 0 1 1.31 1.254V9.35a2.194 2.194 0 0 1-4.384 0zM16.5 16a5.28 5.28 0 0 1-4.5 2 5.261 5.261 0 0 1-4.5-2 1.345 1.345 0 0 1 0-1.5 7.204 7.204 0 0 1 4.5-1.497 7.322 7.322 0 0 1 4.5 1.497c.345.28.274 1.15 0 1.5z" fill="#2d6cdf" class="color000 svgShape"></path></svg></g></svg>